<?xml version="1.0" encoding="UTF-8" standalone="no"?>
<!DOCTYPE svg PUBLIC "-//W3C//DTD SVG 1.1//EN"
 "http://www.w3.org/Graphics/SVG/1.1/DTD/svg11.dtd">
<!-- Generated by graphviz version 2.38.0 (20140413.2041)
 -->
<!-- Title: pve_software_stack Pages: 1 -->
<svg width="526pt" height="401pt"
 viewBox="0.00 0.00 526.00 401.00" xmlns="http://www.w3.org/2000/svg" xmlns:xlink="http://www.w3.org/1999/xlink">
<g id="graph0" class="graph" transform="scale(1 1) rotate(0) translate(4 397)">
<title>pve_software_stack</title>
<polygon fill="none" stroke="none" points="-4,4 -4,-397 522,-397 522,4 -4,4"/>
<!-- stack -->
<g id="node1" class="node"><title>stack</title>
<polygon fill="#00617f" stroke="none" points="12,-289.5 12,-384.5 506,-384.5 506,-289.5 12,-289.5"/>
<text text-anchor="start" x="210.5" y="-366.5" font-family="Helvetica,sans-Serif" font-size="20.00" fill="white">User Tools</text>
<polygon fill="#00617f" stroke="none" points="14,-291.5 14,-356.5 504,-356.5 504,-291.5 14,-291.5"/>
<polygon fill="#ff9100" stroke="none" points="19,-326.5 19,-351.5 109,-351.5 109,-326.5 19,-326.5"/>
<text text-anchor="start" x="54" y="-335.3" font-family="Helvetica,sans-Serif" font-size="14.00" fill="white">qm</text>
<polygon fill="#ff9100" stroke="none" points="114,-326.5 114,-351.5 225,-351.5 225,-326.5 114,-326.5"/>
<text text-anchor="start" x="149" y="-335.3" font-family="Helvetica,sans-Serif" font-size="14.00" fill="white">pvesm</text>
<polygon fill="#ff9100" stroke="none" points="230,-326.5 230,-351.5 351,-351.5 351,-326.5 230,-326.5"/>
<text text-anchor="start" x="269.5" y="-335.3" font-family="Helvetica,sans-Serif" font-size="14.00" fill="white">pveum</text>
<polygon fill="#ff9100" stroke="none" points="356,-326.5 356,-351.5 499,-351.5 499,-326.5 356,-326.5"/>
<text text-anchor="start" x="390.5" y="-335.3" font-family="Helvetica,sans-Serif" font-size="14.00" fill="white">ha&#45;manager</text>
<polygon fill="#ff9100" stroke="none" points="19,-296.5 19,-321.5 109,-321.5 109,-296.5 19,-296.5"/>
<text text-anchor="start" x="54.5" y="-305.3" font-family="Helvetica,sans-Serif" font-size="14.00" fill="white">pct</text>
<polygon fill="#ff9100" stroke="none" points="114,-296.5 114,-321.5 225,-321.5 225,-296.5 114,-296.5"/>
<text text-anchor="start" x="149" y="-305.3" font-family="Helvetica,sans-Serif" font-size="14.00" fill="white">pvecm</text>
<polygon fill="#ff9100" stroke="none" points="230,-296.5 230,-321.5 351,-321.5 351,-296.5 230,-296.5"/>
<text text-anchor="start" x="264.5" y="-305.3" font-family="Helvetica,sans-Serif" font-size="14.00" fill="white">pveceph</text>
<polygon fill="#ff9100" stroke="none" points="356,-296.5 356,-321.5 499,-321.5 499,-296.5 356,-296.5"/>
<text text-anchor="start" x="393" y="-305.3" font-family="Helvetica,sans-Serif" font-size="14.00" fill="white">pve&#45;firewall</text>
<polygon fill="#00617f" stroke="none" points="12,-218.5 12,-283.5 506,-283.5 506,-218.5 12,-218.5"/>
<text text-anchor="start" x="220.5" y="-265.5" font-family="Helvetica,sans-Serif" font-size="20.00" fill="white">Services</text>
<polygon fill="#00617f" stroke="none" points="14,-220.5 14,-255.5 504,-255.5 504,-220.5 14,-220.5"/>
<polygon fill="#e57000" stroke="none" points="19,-225.5 19,-250.5 104,-250.5 104,-225.5 19,-225.5"/>
<text text-anchor="start" x="34" y="-234.3" font-family="Helvetica,sans-Serif" font-size="14.00" fill="white">pveproxy</text>
<polygon fill="#e57000" stroke="none" points="109,-225.5 109,-250.5 211,-250.5 211,-225.5 109,-225.5"/>
<text text-anchor="start" x="124" y="-234.3" font-family="Helvetica,sans-Serif" font-size="14.00" fill="white">pvedaemon</text>
<polygon fill="#e57000" stroke="none" points="216,-225.5 216,-250.5 298,-250.5 298,-225.5 216,-225.5"/>
<text text-anchor="start" x="231" y="-234.3" font-family="Helvetica,sans-Serif" font-size="14.00" fill="white">pvestatd</text>
<polygon fill="#e57000" stroke="none" points="303,-225.5 303,-250.5 398,-250.5 398,-225.5 303,-225.5"/>
<text text-anchor="start" x="317.5" y="-234.3" font-family="Helvetica,sans-Serif" font-size="14.00" fill="white">pve&#45;ha&#45;lrm</text>
<polygon fill="#e57000" stroke="none" points="403,-225.5 403,-250.5 499,-250.5 499,-225.5 403,-225.5"/>
<text text-anchor="start" x="417.5" y="-234.3" font-family="Helvetica,sans-Serif" font-size="14.00" fill="white">pve&#45;cluster</text>
<polygon fill="#abbaba" stroke="none" points="20,-95.5 20,-204.5 133,-204.5 133,-95.5 20,-95.5"/>
<text text-anchor="start" x="61" y="-178.5" font-family="Helvetica,sans-Serif" font-size="20.00" fill="white">VM</text>
<polygon fill="white" stroke="none" points="25,-137.5 25,-162.5 74,-162.5 74,-137.5 25,-137.5"/>
<text text-anchor="start" x="37" y="-146.3" font-family="Helvetica,sans-Serif" font-size="14.00" fill="#00617f">App</text>
<polygon fill="white" stroke="none" points="79,-137.5 79,-162.5 128,-162.5 128,-137.5 79,-137.5"/>
<text text-anchor="start" x="91" y="-146.3" font-family="Helvetica,sans-Serif" font-size="14.00" fill="#00617f">App</text>
<polygon fill="#00617f" stroke="none" points="25,-100.5 25,-132.5 128,-132.5 128,-100.5 25,-100.5"/>
<text text-anchor="start" x="32.5" y="-111.5" font-family="Helvetica,sans-Serif" font-size="20.00" fill="white">Guest OS</text>
<polygon fill="#abbaba" stroke="none" points="139,-95.5 139,-204.5 252,-204.5 252,-95.5 139,-95.5"/>
<text text-anchor="start" x="180" y="-178.5" font-family="Helvetica,sans-Serif" font-size="20.00" fill="white">VM</text>
<polygon fill="white" stroke="none" points="144,-137.5 144,-162.5 193,-162.5 193,-137.5 144,-137.5"/>
<text text-anchor="start" x="156" y="-146.3" font-family="Helvetica,sans-Serif" font-size="14.00" fill="#00617f">App</text>
<polygon fill="white" stroke="none" points="198,-137.5 198,-162.5 247,-162.5 247,-137.5 198,-137.5"/>
<text text-anchor="start" x="210" y="-146.3" font-family="Helvetica,sans-Serif" font-size="14.00" fill="#00617f">App</text>
<polygon fill="#00617f" stroke="none" points="144,-100.5 144,-132.5 247,-132.5 247,-100.5 144,-100.5"/>
<text text-anchor="start" x="151.5" y="-111.5" font-family="Helvetica,sans-Serif" font-size="20.00" fill="white">Guest OS</text>
<polygon fill="#ff9100" stroke="none" points="18,-65.5 18,-91.5 254,-91.5 254,-65.5 18,-65.5"/>
<text text-anchor="start" x="108.5" y="-73.5" font-family="Helvetica,sans-Serif" font-size="20.00" fill="white">Qemu</text>
<text text-anchor="start" x="320.5" y="-192.8" font-family="Helvetica,sans-Serif" font-size="14.00"> </text>
<text text-anchor="start" x="320.5" y="-170.8" font-family="Helvetica,sans-Serif" font-size="14.00"> </text>
<text text-anchor="start" x="320.5" y="-149.3" font-family="Helvetica,sans-Serif" font-size="14.00"> </text>
<polygon fill="#abbaba" stroke="none" points="266,-67.5 266,-139.5 379,-139.5 379,-67.5 266,-67.5"/>
<text text-anchor="start" x="278.5" y="-113.5" font-family="Helvetica,sans-Serif" font-size="20.00" fill="white">Container</text>
<polygon fill="white" stroke="none" points="271,-72.5 271,-97.5 320,-97.5 320,-72.5 271,-72.5"/>
<text text-anchor="start" x="283" y="-81.3" font-family="Helvetica,sans-Serif" font-size="14.00" fill="#00617f">App</text>
<polygon fill="white" stroke="none" points="325,-72.5 325,-97.5 374,-97.5 374,-72.5 325,-72.5"/>
<text text-anchor="start" x="337" y="-81.3" font-family="Helvetica,sans-Serif" font-size="14.00" fill="#00617f">App</text>
<polygon fill="#abbaba" stroke="none" points="385,-67.5 385,-139.5 498,-139.5 498,-67.5 385,-67.5"/>
<text text-anchor="start" x="397.5" y="-113.5" font-family="Helvetica,sans-Serif" font-size="20.00" fill="white">Container</text>
<polygon fill="white" stroke="none" points="390,-72.5 390,-97.5 439,-97.5 439,-72.5 390,-72.5"/>
<text text-anchor="start" x="402" y="-81.3" font-family="Helvetica,sans-Serif" font-size="14.00" fill="#00617f">App</text>
<polygon fill="white" stroke="none" points="444,-72.5 444,-97.5 493,-97.5 493,-72.5 444,-72.5"/>
<text text-anchor="start" x="456" y="-81.3" font-family="Helvetica,sans-Serif" font-size="14.00" fill="#00617f">App</text>
<polygon fill="#00617f" stroke="none" points="12,-7.5 12,-53.5 506,-53.5 506,-7.5 12,-7.5"/>
<polygon fill="#00617f" stroke="none" points="14,-9.5 14,-51.5 504,-51.5 504,-9.5 14,-9.5"/>
<polygon fill="#ff9100" stroke="none" points="19,-18 19,-43 64,-43 64,-18 19,-18"/>
<text text-anchor="start" x="24" y="-26.8" font-family="Helvetica,sans-Serif" font-size="14.00" fill="white">KVM</text>
<text text-anchor="start" x="150.5" y="-25.5" font-family="Helvetica,sans-Serif" font-size="20.00" fill="white">Linux Kernel</text>
<polygon fill="#ff9100" stroke="none" points="349,-18 349,-43 424,-43 424,-18 349,-18"/>
<text text-anchor="start" x="354" y="-26.8" font-family="Helvetica,sans-Serif" font-size="14.00" fill="white">AppArmor</text>
<polygon fill="#ff9100" stroke="none" points="429,-18 429,-43 499,-43 499,-18 429,-18"/>
<text text-anchor="start" x="434" y="-26.8" font-family="Helvetica,sans-Serif" font-size="14.00" fill="white">cgroups</text>
</g>
</g>
</svg>
